<svg width="25" height="25" viewBox="0 0 25 25" fill="none" xmlns="http://www.w3.org/2000/svg">
<path fill-rule="evenodd" clip-rule="evenodd" d="M8.82843 10.1757C9.96478 9.49546 11.445 8.43555 13.1365 6.87005C16.3024 3.94018 17.4287 1.24106 17.5962 0.257729L19.368 0.921826C18.726 2.57875 17.9238 6.91356 19.6418 11.3788C19.6534 11.3772 19.665 11.3756 19.6766 11.3741C20.7992 11.098 25.4198 13.0769 24.8993 18.2947C24.5571 21.7249 21.0785 24.0912 18.2236 24.5886C16.0946 24.9596 13.6308 24.5211 11.8226 22.3056C9.46757 23.5564 6.26124 23.1497 4.13218 22.0193C1.53196 20.6388 -0.69565 17.7429 0.755254 12.982C1.91598 9.17323 5.20279 8.88434 6.70111 9.21599C7.12836 9.33227 7.91441 9.70191 8.82843 10.1757ZM9.87607 10.7325C10.9938 11.3391 12.168 12.0101 13.0531 12.5223C14.2068 12.1782 16.7187 11.7883 18.659 11.5146C18.1446 9.68366 17.5258 6.38524 17.8226 2.96574C16.7357 4.27503 13.8143 7.4105 9.87607 10.7325Z" fill="#00C2FF"/>
</svg>
