<svg width="220" height="60" viewBox="0 0 220 60" fill="none" xmlns="http://www.w3.org/2000/svg">
<path d="M74.672 13.592C75.6987 13.592 76.5933 13.724 77.356 13.988C78.1187 14.252 78.7933 14.604 79.38 15.044C79.7907 15.3667 80.1427 15.8213 80.436 16.408C80.7293 16.9653 80.876 17.6107 80.876 18.344C80.876 19.136 80.5827 19.84 79.996 20.456C79.4387 21.072 78.6907 21.38 77.752 21.38C76.784 21.38 75.9773 21.1013 75.332 20.544C74.716 19.9867 74.408 19.224 74.408 18.256C74.408 17.4933 74.628 16.8187 75.068 16.232C75.508 15.6453 76.1533 15.2347 77.004 15C76.916 14.824 76.74 14.6773 76.476 14.56C76.212 14.4427 75.86 14.384 75.42 14.384C74.8333 14.384 74.3493 14.4867 73.968 14.692C73.5867 14.8973 73.2787 15.176 73.044 15.528C72.7213 15.968 72.5013 16.6133 72.384 17.464C72.2667 18.2853 72.208 19.5613 72.208 21.292V25.296H76.916V26.176H72.208V43.468C72.208 44.9053 72.5747 45.8733 73.308 46.372C74.0413 46.8413 75.0533 47.076 76.344 47.076V48C75.5813 47.9707 74.5107 47.9413 73.132 47.912C71.7533 47.8533 70.3013 47.824 68.776 47.824C67.6613 47.824 66.5613 47.8533 65.476 47.912C64.42 47.9413 63.6133 47.9707 63.056 48V47.076C64.0827 47.076 64.8013 46.856 65.212 46.416C65.652 45.976 65.872 45.14 65.872 43.908V26.176H62.88V25.296H65.872C65.872 23.5653 65.96 22.128 66.136 20.984C66.312 19.8107 66.6053 18.8133 67.016 17.992C67.4267 17.1707 67.9693 16.4373 68.644 15.792C69.2893 15.176 70.14 14.6627 71.196 14.252C72.2813 13.812 73.44 13.592 74.672 13.592ZM83.4088 41.84C84.5528 41.84 85.4621 42.148 86.1368 42.764C86.8114 43.3507 87.1488 44.172 87.1488 45.228C87.1488 46.284 86.8114 47.12 86.1368 47.736C85.4621 48.3227 84.5528 48.616 83.4088 48.616C82.2648 48.616 81.3554 48.3227 80.6808 47.736C80.0061 47.12 79.6688 46.284 79.6688 45.228C79.6688 44.172 80.0061 43.3507 80.6808 42.764C81.3554 42.148 82.2648 41.84 83.4088 41.84ZM99.3601 24.768V51.608C99.3601 52.9867 99.7121 53.896 100.416 54.336C101.12 54.8053 102.088 55.04 103.32 55.04V55.964C102.557 55.9347 101.501 55.8907 100.152 55.832C98.8321 55.8027 97.4241 55.788 95.9281 55.788C94.8428 55.788 93.7721 55.8027 92.7161 55.832C91.6895 55.8907 90.9121 55.9347 90.3841 55.964V55.04C91.3521 55.04 92.0268 54.8347 92.4081 54.424C92.8188 54.0133 93.0241 53.2213 93.0241 52.048V30.048C93.0241 28.728 92.8188 27.76 92.4081 27.144C91.9975 26.4987 91.2641 26.176 90.2081 26.176V25.252C91.1468 25.34 92.0561 25.384 92.9361 25.384C94.1388 25.384 95.2828 25.34 96.3681 25.252C97.4535 25.1347 98.4508 24.9733 99.3601 24.768ZM106.18 24.636C107.676 24.636 109.011 25.0467 110.184 25.868C111.357 26.66 112.296 27.8773 113 29.52C113.704 31.1333 114.056 33.1573 114.056 35.592C114.056 37.7333 113.807 39.6107 113.308 41.224C112.839 42.8373 112.149 44.2013 111.24 45.316C110.36 46.4013 109.289 47.2227 108.028 47.78C106.796 48.3373 105.403 48.616 103.848 48.616C102.704 48.616 101.663 48.4107 100.724 48C99.7855 47.6187 99.0668 47.0613 98.5681 46.328L99.0081 45.756C99.3015 46.284 99.7121 46.6947 100.24 46.988C100.797 47.2813 101.428 47.428 102.132 47.428C103.452 47.428 104.493 46.988 105.256 46.108C106.019 45.1987 106.561 43.9373 106.884 42.324C107.236 40.6813 107.412 38.7307 107.412 36.472C107.412 33.9493 107.251 31.9693 106.928 30.532C106.605 29.0947 106.165 28.068 105.608 27.452C105.051 26.836 104.376 26.528 103.584 26.528C102.528 26.528 101.56 26.9387 100.68 27.76C99.8295 28.5813 99.3455 29.7547 99.2281 31.28L99.0081 29.74C99.5361 28.068 100.431 26.8067 101.692 25.956C102.983 25.076 104.479 24.636 106.18 24.636ZM122.839 48.308C121.519 48.308 120.419 48.0587 119.539 47.56C118.659 47.0613 118.014 46.4013 117.603 45.58C117.192 44.7293 116.987 43.8053 116.987 42.808C116.987 41.5467 117.266 40.52 117.823 39.728C118.41 38.936 119.158 38.2907 120.067 37.792C120.976 37.2933 121.93 36.8827 122.927 36.56C123.954 36.2373 124.922 35.9293 125.831 35.636C126.77 35.3133 127.518 34.9467 128.075 34.536C128.662 34.096 128.955 33.5387 128.955 32.864V29.432C128.955 28.6693 128.823 27.9947 128.559 27.408C128.324 26.792 127.943 26.3227 127.415 26C126.916 25.6773 126.256 25.516 125.435 25.516C124.848 25.516 124.262 25.604 123.675 25.78C123.088 25.9267 122.604 26.1907 122.223 26.572C123.044 26.8653 123.675 27.32 124.115 27.936C124.584 28.5227 124.819 29.1973 124.819 29.96C124.819 30.9573 124.467 31.7493 123.763 32.336C123.088 32.9227 122.282 33.216 121.343 33.216C120.287 33.216 119.48 32.8933 118.923 32.248C118.395 31.5733 118.131 30.7667 118.131 29.828C118.131 28.9773 118.336 28.2733 118.747 27.716C119.187 27.1587 119.788 26.6307 120.551 26.132C121.372 25.6627 122.355 25.296 123.499 25.032C124.672 24.768 125.934 24.636 127.283 24.636C128.632 24.636 129.85 24.7827 130.935 25.076C132.02 25.34 132.93 25.8387 133.663 26.572C134.338 27.2467 134.778 28.0827 134.983 29.08C135.188 30.048 135.291 31.28 135.291 32.776V44.744C135.291 45.4773 135.364 45.9907 135.511 46.284C135.658 46.548 135.907 46.68 136.259 46.68C136.523 46.68 136.772 46.6067 137.007 46.46C137.271 46.3133 137.55 46.1373 137.843 45.932L138.283 46.68C137.667 47.208 136.948 47.6187 136.127 47.912C135.335 48.176 134.44 48.308 133.443 48.308C132.358 48.308 131.492 48.1613 130.847 47.868C130.202 47.5453 129.732 47.12 129.439 46.592C129.175 46.064 129.043 45.448 129.043 44.744C128.339 45.8587 127.488 46.7387 126.491 47.384C125.494 48 124.276 48.308 122.839 48.308ZM125.963 45.492C126.55 45.492 127.078 45.36 127.547 45.096C128.046 44.8027 128.515 44.3333 128.955 43.688V34.668C128.691 35.108 128.324 35.504 127.855 35.856C127.386 36.208 126.887 36.5747 126.359 36.956C125.831 37.308 125.318 37.704 124.819 38.144C124.35 38.584 123.968 39.1267 123.675 39.772C123.382 40.4173 123.235 41.1947 123.235 42.104C123.235 43.248 123.484 44.0987 123.983 44.656C124.482 45.2133 125.142 45.492 125.963 45.492ZM148.516 13.548V43.908C148.516 45.14 148.722 45.976 149.132 46.416C149.572 46.856 150.306 47.076 151.332 47.076V48C150.775 47.9707 149.939 47.9413 148.824 47.912C147.71 47.8533 146.58 47.824 145.436 47.824C144.292 47.824 143.134 47.8533 141.96 47.912C140.816 47.9413 139.951 47.9707 139.364 48V47.076C140.391 47.076 141.11 46.856 141.52 46.416C141.96 45.976 142.18 45.14 142.18 43.908V18.828C142.18 17.508 141.975 16.54 141.564 15.924C141.183 15.2787 140.45 14.956 139.364 14.956V14.032C140.303 14.12 141.212 14.164 142.092 14.164C143.295 14.164 144.439 14.12 145.524 14.032C146.61 13.9147 147.607 13.7533 148.516 13.548ZM159.276 48.308C157.956 48.308 156.856 48.0587 155.976 47.56C155.096 47.0613 154.451 46.4013 154.04 45.58C153.63 44.7293 153.424 43.8053 153.424 42.808C153.424 41.5467 153.703 40.52 154.26 39.728C154.847 38.936 155.595 38.2907 156.504 37.792C157.414 37.2933 158.367 36.8827 159.364 36.56C160.391 36.2373 161.359 35.9293 162.268 35.636C163.207 35.3133 163.955 34.9467 164.512 34.536C165.099 34.096 165.392 33.5387 165.392 32.864V29.432C165.392 28.6693 165.26 27.9947 164.996 27.408C164.762 26.792 164.38 26.3227 163.852 26C163.354 25.6773 162.694 25.516 161.872 25.516C161.286 25.516 160.699 25.604 160.112 25.78C159.526 25.9267 159.042 26.1907 158.66 26.572C159.482 26.8653 160.112 27.32 160.552 27.936C161.022 28.5227 161.256 29.1973 161.256 29.96C161.256 30.9573 160.904 31.7493 160.2 32.336C159.526 32.9227 158.719 33.216 157.78 33.216C156.724 33.216 155.918 32.8933 155.36 32.248C154.832 31.5733 154.568 30.7667 154.568 29.828C154.568 28.9773 154.774 28.2733 155.184 27.716C155.624 27.1587 156.226 26.6307 156.988 26.132C157.81 25.6627 158.792 25.296 159.936 25.032C161.11 24.768 162.371 24.636 163.72 24.636C165.07 24.636 166.287 24.7827 167.372 25.076C168.458 25.34 169.367 25.8387 170.1 26.572C170.775 27.2467 171.215 28.0827 171.42 29.08C171.626 30.048 171.728 31.28 171.728 32.776V44.744C171.728 45.4773 171.802 45.9907 171.948 46.284C172.095 46.548 172.344 46.68 172.696 46.68C172.96 46.68 173.21 46.6067 173.444 46.46C173.708 46.3133 173.987 46.1373 174.28 45.932L174.72 46.68C174.104 47.208 173.386 47.6187 172.564 47.912C171.772 48.176 170.878 48.308 169.88 48.308C168.795 48.308 167.93 48.1613 167.284 47.868C166.639 47.5453 166.17 47.12 165.876 46.592C165.612 46.064 165.48 45.448 165.48 44.744C164.776 45.8587 163.926 46.7387 162.928 47.384C161.931 48 160.714 48.308 159.276 48.308ZM162.4 45.492C162.987 45.492 163.515 45.36 163.984 45.096C164.483 44.8027 164.952 44.3333 165.392 43.688V34.668C165.128 35.108 164.762 35.504 164.292 35.856C163.823 36.208 163.324 36.5747 162.796 36.956C162.268 37.308 161.755 37.704 161.256 38.144C160.787 38.584 160.406 39.1267 160.112 39.772C159.819 40.4173 159.672 41.1947 159.672 42.104C159.672 43.248 159.922 44.0987 160.42 44.656C160.919 45.2133 161.579 45.492 162.4 45.492ZM187.418 24.636C188.562 24.636 189.603 24.768 190.542 25.032C191.51 25.2667 192.302 25.5747 192.918 25.956C193.681 26.4253 194.267 27.012 194.678 27.716C195.118 28.3907 195.338 29.1827 195.338 30.092C195.338 31.1187 195.015 31.9693 194.37 32.644C193.725 33.2893 192.889 33.612 191.862 33.612C190.835 33.612 190.014 33.3187 189.398 32.732C188.782 32.1453 188.474 31.3533 188.474 30.356C188.474 29.4173 188.767 28.64 189.354 28.024C189.941 27.3787 190.615 26.9533 191.378 26.748C191.143 26.4547 190.791 26.2053 190.322 26C189.853 25.7947 189.325 25.692 188.738 25.692C187.829 25.692 187.022 25.956 186.318 26.484C185.643 27.012 185.071 27.7453 184.602 28.684C184.133 29.6227 183.766 30.7227 183.502 31.984C183.267 33.2453 183.15 34.624 183.15 36.12C183.15 38.3787 183.429 40.1533 183.986 41.444C184.573 42.7347 185.306 43.644 186.186 44.172C187.095 44.7 188.034 44.964 189.002 44.964C189.559 44.964 190.161 44.876 190.806 44.7C191.481 44.524 192.155 44.172 192.83 43.644C193.534 43.116 194.179 42.368 194.766 41.4L195.514 41.664C195.191 42.7493 194.663 43.8347 193.93 44.92C193.197 46.0053 192.243 46.9 191.07 47.604C189.897 48.2787 188.459 48.616 186.758 48.616C184.851 48.616 183.121 48.2053 181.566 47.384C180.041 46.5333 178.809 45.2427 177.87 43.512C176.961 41.752 176.506 39.4933 176.506 36.736C176.506 34.096 176.975 31.8813 177.914 30.092C178.882 28.2733 180.187 26.9093 181.83 26C183.473 25.0907 185.335 24.636 187.418 24.636ZM209.158 24.636C211.739 24.636 213.763 25.3987 215.23 26.924C216.697 28.4493 217.43 30.9427 217.43 34.404H202.954L202.866 33.568H211.886C211.915 32.1307 211.827 30.8107 211.622 29.608C211.417 28.376 211.094 27.3933 210.654 26.66C210.214 25.9267 209.627 25.56 208.894 25.56C207.867 25.56 206.987 26.2053 206.254 27.496C205.55 28.7867 205.125 30.928 204.978 33.92L205.11 34.184C205.081 34.536 205.051 34.9027 205.022 35.284C205.022 35.6653 205.022 36.0613 205.022 36.472C205.022 38.496 205.301 40.1387 205.858 41.4C206.445 42.6613 207.178 43.5853 208.058 44.172C208.938 44.7293 209.833 45.008 210.742 45.008C211.358 45.008 211.989 44.92 212.634 44.744C213.309 44.5387 213.983 44.1867 214.658 43.688C215.333 43.16 215.963 42.4267 216.55 41.488L217.342 41.752C216.99 42.8667 216.433 43.952 215.67 45.008C214.907 46.064 213.939 46.9293 212.766 47.604C211.593 48.2787 210.185 48.616 208.542 48.616C206.547 48.616 204.787 48.1907 203.262 47.34C201.737 46.4893 200.534 45.1987 199.654 43.468C198.803 41.7373 198.378 39.5373 198.378 36.868C198.378 34.14 198.833 31.8667 199.742 30.048C200.681 28.2293 201.957 26.88 203.57 26C205.213 25.0907 207.075 24.636 209.158 24.636Z" fill="#2E2E2E"/>
<g clip-path="url(#clip0_13435_143)">
<path d="M35.4044 24.8518L34.8694 23.0909C34.1898 21.0907 32.0174 20.0202 30.0172 20.6998C28.892 21.0821 28.0084 21.9657 27.6261 23.0909L27.0911 24.8518C26.6409 26.3368 26.5464 27.9069 26.8152 29.4351C27.0605 30.7218 27.8773 31.8272 29.0352 32.4393L28.4361 45.8335C28.3559 46.5811 28.5984 47.3274 29.1027 47.8851C30.1874 49.0716 32.0287 49.1541 33.2151 48.0694C33.2793 48.0107 33.3408 47.9493 33.3994 47.8851C33.8925 47.3432 34.1346 46.6188 34.0661 45.8893L33.4636 32.4376C34.6199 31.8252 35.4355 30.7205 35.6802 29.4351C35.9491 27.9069 35.8546 26.3368 35.4044 24.8518ZM34.0386 29.1451C33.8582 30.0695 33.1994 30.8279 32.3094 31.1359C31.9716 31.2629 31.754 31.5929 31.7702 31.9534L32.4036 46.0209C32.4327 46.2969 32.3417 46.572 32.1536 46.7759C31.6518 47.2727 30.8437 47.2727 30.3419 46.7759C30.1444 46.5555 30.0547 46.2589 30.0969 45.9659L30.7252 31.9534C30.7415 31.5929 30.5239 31.2629 30.1861 31.1359C29.2961 30.8279 28.6373 30.0695 28.4569 29.1451C28.234 27.8764 28.3125 26.5729 28.6861 25.3401L29.2211 23.5784C29.635 22.4592 30.878 21.8874 31.9973 22.3014C32.5891 22.5202 33.0556 22.9868 33.2744 23.5784L33.8094 25.3401C34.1825 26.573 34.2611 27.8764 34.0386 29.1451Z" fill="#FF9401"/>
<path d="M22.4983 20.5C22.038 20.5 21.6649 20.8731 21.6649 21.3333V28.4883L19.4091 30.7442C19.2422 30.9104 19.1535 31.1397 19.1649 31.375L19.8941 45.9583C19.9115 46.2728 19.7973 46.5804 19.5791 46.8075C19.1229 47.2677 18.38 47.271 17.9197 46.8148C17.9172 46.8124 17.9148 46.8099 17.9124 46.8075C17.6941 46.5804 17.58 46.2728 17.5974 45.9583L18.3316 31.375C18.3433 31.1398 18.2548 30.9106 18.0883 30.7442L15.8316 28.4883V21.3333C15.8316 20.8731 15.4585 20.5 14.9983 20.5C14.538 20.5 14.1649 20.8731 14.1649 21.3333V28.8333C14.1649 29.0544 14.2528 29.2663 14.4091 29.4225L16.6474 31.6617L15.9366 45.8775C15.861 47.4303 17.0585 48.7505 18.6113 48.8261C20.1641 48.9018 21.4843 47.7043 21.5599 46.1515C21.5644 46.0602 21.5644 45.9689 21.5599 45.8776L20.8491 31.6618L23.0874 29.4226C23.2437 29.2664 23.3316 29.0545 23.3316 28.8334V21.3334C23.3316 20.8731 22.9585 20.5 22.4983 20.5Z" fill="#FF9401"/>
<path d="M17.4983 20.5C17.038 20.5 16.6649 20.8731 16.6649 21.3333V28C16.6649 28.4602 17.038 28.8333 17.4983 28.8333C17.9585 28.8333 18.3316 28.4602 18.3316 28V21.3333C18.3316 20.8731 17.9585 20.5 17.4983 20.5Z" fill="#FF9401"/>
<path d="M19.9984 20.5C19.5382 20.5 19.165 20.8731 19.165 21.3333V28C19.165 28.4602 19.5382 28.8333 19.9984 28.8333C20.4586 28.8333 20.8317 28.4602 20.8317 28V21.3333C20.8317 20.8731 20.4586 20.5 19.9984 20.5Z" fill="#FF9401"/>
<path d="M25 8C11.1929 8 0 19.1929 0 33C0 46.8071 11.1929 58 25 58C38.8071 58 50 46.8071 50 33C49.9844 19.1994 38.8006 8.01563 25 8ZM25 56.3333C12.1133 56.3333 1.66667 45.8867 1.66667 33C1.66667 20.1133 12.1133 9.66667 25 9.66667C37.8867 9.66667 48.3333 20.1133 48.3333 33C48.3186 45.8805 37.8805 56.3186 25 56.3333Z" fill="#2E2E2E"/>
<path d="M27.7049 48.6428C27.6602 48.1847 27.2526 47.8496 26.7945 47.8943C26.7838 47.8954 26.773 47.8966 26.7623 47.8981L26.7656 47.8972C25.5924 48.0335 24.4072 48.0335 23.234 47.8972C22.7767 47.8436 22.3626 48.1708 22.309 48.6281C22.2553 49.0854 22.5825 49.4994 23.0398 49.5531C24.341 49.705 25.6553 49.705 26.9565 49.5531C27.4145 49.5085 27.7496 49.1009 27.7049 48.6428Z" fill="#2E2E2E"/>
<path d="M37.7496 22.2618C37.4539 21.9092 36.9282 21.8631 36.5756 22.1589C36.5745 22.1598 36.5733 22.1609 36.5721 22.1618C36.2203 22.4585 36.1755 22.9841 36.4721 23.336C41.4966 29.3006 41.1122 38.1203 35.5879 43.6252C35.2619 43.9501 35.2609 44.4779 35.5858 44.8039C35.9107 45.1299 36.4385 45.1309 36.7646 44.806C42.9039 38.69 43.332 28.8898 37.7496 22.2618Z" fill="#2E2E2E"/>
<path d="M19.4194 19.0154C19.4188 19.0154 19.4181 19.0153 19.4175 19.0153C19.4165 19.0153 19.4155 19.0154 19.4144 19.0154H19.4194Z" fill="#2E2E2E"/>
<path d="M28.9335 16.7996C25.6767 16.0191 22.2611 16.2289 19.1243 17.4021C18.6935 17.5641 18.4757 18.0447 18.6377 18.4754C18.7597 18.8001 19.0702 19.015 19.4169 19.0153C19.5166 19.0148 19.6154 18.9966 19.7085 18.9613C22.5333 17.9049 25.6091 17.7163 28.5418 18.4196C28.9892 18.5277 29.4395 18.2528 29.5477 17.8054C29.6558 17.358 29.3809 16.9077 28.9335 16.7996Z" fill="#2E2E2E"/>
<path d="M14.3725 43.5829C11.5632 40.7784 9.9887 36.9692 9.99829 32.9996C9.99006 29.8281 10.9946 26.7369 12.8658 24.1762C13.1424 23.8083 13.0683 23.2859 12.7004 23.0094C12.3325 22.7328 11.8101 22.8069 11.5335 23.1748C11.5286 23.1814 11.5238 23.1879 11.5191 23.1946C6.7011 29.8183 7.41006 38.9611 13.1916 44.7629C13.5175 45.089 14.046 45.0892 14.372 44.7633C14.6981 44.4375 14.6983 43.909 14.3725 43.5829Z" fill="#2E2E2E"/>
</g>
<defs>
<clipPath id="clip0_13435_143">
<rect width="50" height="50" fill="white" transform="translate(0 8)"/>
</clipPath>
</defs>
</svg>
